# xmcd CD database file
#
# Track frame offsets:
#	150
#	26642
#	47330
#	61100
#	77170
#	92145
#	114670
#	134957
#	161475
#	170587
#	189050
#	210392
#
# Disc length: 2982 seconds
#
# Revision: 0
# Processed by: cddbd v1.5.1PL0 Copyright (c) Steve Scherf et al.
# Submitted via: CDex 1.50Beta7
#
DISCID=9a0ba40c
DTITLE=Hoon - CBL
DYEAR=2003
DGENRE=Ambient
TTITLE0=Mother Nature's Children (Original) - Hoon
TTITLE1=夢 - ドビュッシー
TTITLE2=平均律クラヴィア曲集 第1部24の前奏曲とフーガ 1ハ長調 - バッハ
TTITLE3=メヌエット ト長調 - バッハ
TTITLE4=ジムノペディ第1番 - サティ
TTITLE5=ジムノペディ第2番 - サティ
TTITLE6=ジムノペディ第3番 - サティ
TTITLE7=ジムノペディ第2番組曲「ドリー」Op.56より 第1曲「子守歌」/ フォーレ
TTITLE8=前奏曲第7番 イ長調 - ショパン
TTITLE9=前奏曲第4番 ホ短調 - ショパン
TTITLE10=ピアノ協奏曲第20番 ニ短調2楽章 ロンマンス - モーツアルト
TTITLE11=Hello My Sweetie (Original) - Hoon
EXTD=YEAR: 2003
EXTT0=
EXTT1=
EXTT2=
EXTT3=
EXTT4=
EXTT5=
EXTT6=
EXTT7=
EXTT8=
EXTT9=
EXTT10=
EXTT11=
PLAYORDER=
